<mxfile host="app.diagrams.net" modified="2023-10-08T17:11:01.408Z" agent="Mozilla/5.0 (X11; Linux x86_64) AppleWebKit/537.36 (KHTML, like Gecko) Chrome/117.0.0.0 Safari/537.36" version="22.0.4" etag="M8JBAZgpOnuNoqcaGF-j" type="github">
  <diagram name="PÃ¡gina-1" id="BBOheQf9RnGXGsN04ocZ">
    <mxGraphModel>
      <root>
        <mxCell id="0" />
        <mxCell id="1" parent="0" />
      </root>
    </mxGraphModel>
  </diagram>
</mxfile>
